<?xml version="1.0" encoding="utf-8"?>
<!-- Generator: Adobe Illustrator 20.1.0, SVG Export Plug-In . SVG Version: 6.00 Build 0)  -->
<svg version="1.1" xmlns="http://www.w3.org/2000/svg" xmlns:xlink="http://www.w3.org/1999/xlink" x="0px" y="0px"
	 viewBox="0 0 2800 2800" style="enable-background:new 0 0 2800 2800;" xml:space="preserve">
<style type="text/css">
	.st0{fill:#FFFFFF;}
	.st1{clip-path:url(#SVGID_2_);fill:#772784;}
	.st2{clip-path:url(#SVGID_2_);fill:#8B3C8F;}
	.st3{clip-path:url(#SVGID_2_);fill:#90348B;}
	.st4{clip-path:url(#SVGID_2_);fill:#AC3A81;}
	.st5{clip-path:url(#SVGID_2_);fill:#A01F51;}
	.st6{clip-path:url(#SVGID_2_);fill:#B21D32;}
	.st7{clip-path:url(#SVGID_2_);fill:#B41E1E;}
	.st8{clip-path:url(#SVGID_2_);fill:#B21B1D;}
	.st9{clip-path:url(#SVGID_2_);fill:#AC1F1C;}
	.st10{clip-path:url(#SVGID_2_);fill:#A94528;}
	.st11{clip-path:url(#SVGID_2_);fill:#892616;}
	.st12{clip-path:url(#SVGID_2_);fill:#7B378C;}
	.st13{clip-path:url(#SVGID_2_);fill:#8A4694;}
	.st14{clip-path:url(#SVGID_2_);fill:#8F3C8F;}
	.st15{clip-path:url(#SVGID_2_);fill:#C04A95;}
	.st16{clip-path:url(#SVGID_2_);fill:#BB1C53;}
	.st17{clip-path:url(#SVGID_2_);fill:#C3192B;}
	.st18{clip-path:url(#SVGID_2_);fill:#D1191B;}
	.st19{clip-path:url(#SVGID_2_);fill:#D9471C;}
	.st20{clip-path:url(#SVGID_2_);fill:#E03F28;}
	.st21{clip-path:url(#SVGID_2_);fill:#DF5C36;}
	.st22{clip-path:url(#SVGID_2_);fill:#B64825;}
	.st23{clip-path:url(#SVGID_2_);fill:#8F4594;}
	.st24{clip-path:url(#SVGID_2_);fill:#8E4091;}
	.st25{clip-path:url(#SVGID_2_);fill:#9D4392;}
	.st26{clip-path:url(#SVGID_2_);fill:#B62582;}
	.st27{clip-path:url(#SVGID_2_);fill:#D61D5B;}
	.st28{clip-path:url(#SVGID_2_);fill:#CF1521;}
	.st29{clip-path:url(#SVGID_2_);fill:#E2381F;}
	.st30{clip-path:url(#SVGID_2_);fill:#E2431C;}
	.st31{clip-path:url(#SVGID_2_);fill:#E76727;}
	.st32{clip-path:url(#SVGID_2_);fill:#D0531D;}
	.st33{clip-path:url(#SVGID_2_);fill:#AE3D17;}
	.st34{clip-path:url(#SVGID_2_);fill:#7A4393;}
	.st35{clip-path:url(#SVGID_2_);fill:#823E90;}
	.st36{clip-path:url(#SVGID_2_);fill:#9B358B;}
	.st37{clip-path:url(#SVGID_2_);fill:#D03B8E;}
	.st38{clip-path:url(#SVGID_2_);fill:#E13C20;}
	.st39{clip-path:url(#SVGID_2_);fill:#E2301F;}
	.st40{clip-path:url(#SVGID_2_);fill:#E84926;}
	.st41{clip-path:url(#SVGID_2_);fill:#E86020;}
	.st42{clip-path:url(#SVGID_2_);fill:#ED7C2B;}
	.st43{clip-path:url(#SVGID_2_);fill:#D85B26;}
	.st44{clip-path:url(#SVGID_2_);fill:#BE4D1D;}
	.st45{clip-path:url(#SVGID_2_);fill:#633A8E;}
	.st46{clip-path:url(#SVGID_2_);fill:#734494;}
	.st47{clip-path:url(#SVGID_2_);fill:#98277C;}
	.st48{clip-path:url(#SVGID_2_);fill:#CC1E45;}
	.st49{clip-path:url(#SVGID_2_);fill:#E9592C;}
	.st50{clip-path:url(#SVGID_2_);fill:#E95224;}
	.st51{clip-path:url(#SVGID_2_);fill:#D75724;}
	.st52{clip-path:url(#SVGID_2_);fill:#F08338;}
	.st53{clip-path:url(#SVGID_2_);fill:#E87D23;}
	.st54{clip-path:url(#SVGID_2_);fill:#D97220;}
	.st55{clip-path:url(#SVGID_2_);fill:#C55A1C;}
	.st56{clip-path:url(#SVGID_2_);fill:#364C9B;}
	.st57{clip-path:url(#SVGID_2_);fill:#515EA7;}
	.st58{clip-path:url(#SVGID_2_);fill:#947786;}
	.st59{clip-path:url(#SVGID_2_);fill:#E5A047;}
	.st60{clip-path:url(#SVGID_2_);fill:#F59B38;}
	.st61{clip-path:url(#SVGID_2_);fill:#E98C26;}
	.st62{clip-path:url(#SVGID_2_);fill:#ED7B31;}
	.st63{clip-path:url(#SVGID_2_);fill:#DA8726;}
	.st64{clip-path:url(#SVGID_2_);fill:#D49128;}
	.st65{clip-path:url(#SVGID_2_);fill:#D07937;}
	.st66{clip-path:url(#SVGID_2_);fill:#A87A1A;}
	.st67{clip-path:url(#SVGID_2_);fill:#3763AD;}
	.st68{clip-path:url(#SVGID_2_);fill:#3A87C2;}
	.st69{clip-path:url(#SVGID_2_);fill:#A1C743;}
	.st70{clip-path:url(#SVGID_2_);fill:#EEE542;}
	.st71{clip-path:url(#SVGID_2_);fill:#E9D322;}
	.st72{clip-path:url(#SVGID_2_);fill:#E08D23;}
	.st73{clip-path:url(#SVGID_2_);fill:#D5921E;}
	.st74{clip-path:url(#SVGID_2_);fill:#E0A02B;}
	.st75{clip-path:url(#SVGID_2_);fill:#CF9522;}
	.st76{clip-path:url(#SVGID_2_);fill:#B77A1C;}
	.st77{clip-path:url(#SVGID_2_);fill:#41BEE1;}
	.st78{clip-path:url(#SVGID_2_);fill:#4DB8A0;}
	.st79{clip-path:url(#SVGID_2_);fill:#88BE3E;}
	.st80{clip-path:url(#SVGID_2_);fill:#CAD633;}
	.st81{clip-path:url(#SVGID_2_);fill:#EEDE20;}
	.st82{clip-path:url(#SVGID_2_);fill:#E8B321;}
	.st83{clip-path:url(#SVGID_2_);fill:#F1E746;}
	.st84{clip-path:url(#SVGID_2_);fill:#DCB029;}
	.st85{clip-path:url(#SVGID_2_);fill:#CCB125;}
	.st86{clip-path:url(#SVGID_2_);fill:#B47E20;}
	.st87{clip-path:url(#SVGID_2_);fill:#2DAEC8;}
	.st88{clip-path:url(#SVGID_2_);fill:#3FB182;}
	.st89{clip-path:url(#SVGID_2_);fill:#70B95E;}
	.st90{clip-path:url(#SVGID_2_);fill:#91C029;}
	.st91{clip-path:url(#SVGID_2_);fill:#BACF2D;}
	.st92{clip-path:url(#SVGID_2_);fill:#F1E127;}
	.st93{clip-path:url(#SVGID_2_);fill:#E1DF3C;}
	.st94{clip-path:url(#SVGID_2_);fill:#D9A521;}
	.st95{clip-path:url(#SVGID_2_);fill:#D4C52F;}
	.st96{clip-path:url(#SVGID_2_);fill:#AC8518;}
	.st97{clip-path:url(#SVGID_2_);fill:#94861B;}
	.st98{clip-path:url(#SVGID_2_);fill:#57BDB6;}
	.st99{clip-path:url(#SVGID_2_);fill:#3EB181;}
	.st100{clip-path:url(#SVGID_2_);fill:#45AD42;}
	.st101{clip-path:url(#SVGID_2_);fill:#6BB53C;}
	.st102{clip-path:url(#SVGID_2_);fill:#94C125;}
	.st103{clip-path:url(#SVGID_2_);fill:#A5C72C;}
	.st104{clip-path:url(#SVGID_2_);fill:#D0D836;}
	.st105{clip-path:url(#SVGID_2_);fill:#E4DA27;}
	.st106{clip-path:url(#SVGID_2_);fill:#D1C821;}
	.st107{clip-path:url(#SVGID_2_);fill:#C3B625;}
	.st108{clip-path:url(#SVGID_2_);fill:#AF8E1A;}
	.st109{clip-path:url(#SVGID_2_);fill:#2FB092;}
	.st110{clip-path:url(#SVGID_2_);fill:#2EAE76;}
	.st111{clip-path:url(#SVGID_2_);fill:#44AD43;}
	.st112{clip-path:url(#SVGID_2_);fill:#55AF34;}
	.st113{clip-path:url(#SVGID_2_);fill:#81BB2F;}
	.st114{clip-path:url(#SVGID_2_);fill:#A1C62D;}
	.st115{clip-path:url(#SVGID_2_);fill:#B8CC2C;}
	.st116{clip-path:url(#SVGID_2_);fill:#9EBB1E;}
	.st117{clip-path:url(#SVGID_2_);fill:#A1AE1D;}
	.st118{clip-path:url(#SVGID_2_);fill:#A29E1B;}
	.st119{clip-path:url(#SVGID_2_);fill:#998E25;}
	.st120{clip-path:url(#SVGID_2_);fill:#BBAD45;}
	.st121{clip-path:url(#SVGID_2_);fill:#C0AB21;}
	.st122{clip-path:url(#SVGID_2_);fill:#CBCC25;}
	.st123{clip-path:url(#SVGID_2_);fill:#A5C729;}
	.st124{clip-path:url(#SVGID_2_);fill:#A7C828;}
	.st125{clip-path:url(#SVGID_2_);fill:#95BF1F;}
	.st126{clip-path:url(#SVGID_2_);fill:#76B833;}
	.st127{clip-path:url(#SVGID_2_);fill:#59B036;}
	.st128{clip-path:url(#SVGID_2_);fill:#42AD48;}
	.st129{clip-path:url(#SVGID_2_);fill:#2DAD76;}
	.st130{clip-path:url(#SVGID_2_);fill:#2AAA90;}
	.st131{clip-path:url(#SVGID_2_);fill:#AD8816;}
	.st132{clip-path:url(#SVGID_2_);fill:#D4C329;}
	.st133{clip-path:url(#SVGID_2_);fill:#DCDD3F;}
	.st134{clip-path:url(#SVGID_2_);fill:#DADC34;}
	.st135{clip-path:url(#SVGID_2_);fill:#DDDD26;}
	.st136{clip-path:url(#SVGID_2_);fill:#C7D42F;}
	.st137{clip-path:url(#SVGID_2_);fill:#7AB92C;}
	.st138{clip-path:url(#SVGID_2_);fill:#5FB240;}
	.st139{clip-path:url(#SVGID_2_);fill:#6AB972;}
	.st140{clip-path:url(#SVGID_2_);fill:#47B8A6;}
	.st141{clip-path:url(#SVGID_2_);fill:#4CBBBC;}
	.st142{clip-path:url(#SVGID_2_);fill:#C2B633;}
	.st143{clip-path:url(#SVGID_2_);fill:#BFA919;}
	.st144{clip-path:url(#SVGID_2_);fill:#F2D841;}
	.st145{clip-path:url(#SVGID_2_);fill:#DCCF1F;}
	.st146{clip-path:url(#SVGID_2_);fill:#E9E33C;}
	.st147{clip-path:url(#SVGID_2_);fill:#E4E030;}
	.st148{clip-path:url(#SVGID_2_);fill:#A8C825;}
	.st149{clip-path:url(#SVGID_2_);fill:#70B62E;}
	.st150{clip-path:url(#SVGID_2_);fill:#45AE58;}
	.st151{clip-path:url(#SVGID_2_);fill:#5ABFC6;}
	.st152{clip-path:url(#SVGID_2_);fill:#4BBBBB;}
	.st153{clip-path:url(#SVGID_2_);fill:#BC801F;}
	.st154{clip-path:url(#SVGID_2_);fill:#CAA71C;}
	.st155{clip-path:url(#SVGID_2_);fill:#DAB224;}
	.st156{clip-path:url(#SVGID_2_);fill:#E6D320;}
	.st157{clip-path:url(#SVGID_2_);fill:#E9C220;}
	.st158{clip-path:url(#SVGID_2_);fill:#DDDD35;}
	.st159{clip-path:url(#SVGID_2_);fill:#A6C83E;}
	.st160{clip-path:url(#SVGID_2_);fill:#74B955;}
	.st161{clip-path:url(#SVGID_2_);fill:#2B8DA0;}
	.st162{clip-path:url(#SVGID_2_);fill:#2C93D1;}
	.st163{clip-path:url(#SVGID_2_);fill:#B35E1D;}
	.st164{clip-path:url(#SVGID_2_);fill:#C5771F;}
	.st165{clip-path:url(#SVGID_2_);fill:#DE8F27;}
	.st166{clip-path:url(#SVGID_2_);fill:#EC9530;}
	.st167{clip-path:url(#SVGID_2_);fill:#DB9B1C;}
	.st168{clip-path:url(#SVGID_2_);fill:#DF8823;}
	.st169{clip-path:url(#SVGID_2_);fill:#E0B31F;}
	.st170{clip-path:url(#SVGID_2_);fill:#D7D236;}
	.st171{clip-path:url(#SVGID_2_);fill:#79BD6F;}
	.st172{clip-path:url(#SVGID_2_);fill:#1C74B9;}
	.st173{clip-path:url(#SVGID_2_);fill:#2B91D0;}
	.st174{clip-path:url(#SVGID_2_);fill:#BF7428;}
	.st175{clip-path:url(#SVGID_2_);fill:#B55A17;}
	.st176{clip-path:url(#SVGID_2_);fill:#D5711E;}
	.st177{clip-path:url(#SVGID_2_);fill:#DA8518;}
	.st178{clip-path:url(#SVGID_2_);fill:#DA5817;}
	.st179{clip-path:url(#SVGID_2_);fill:#EB7E21;}
	.st180{clip-path:url(#SVGID_2_);fill:#DF7324;}
	.st181{clip-path:url(#SVGID_2_);fill:#CA6260;}
	.st182{clip-path:url(#SVGID_2_);fill:#9575B3;}
	.st183{clip-path:url(#SVGID_2_);fill:#46519F;}
	.st184{clip-path:url(#SVGID_2_);fill:#424D9C;}
	.st185{clip-path:url(#SVGID_2_);fill:#CD7D1D;}
	.st186{clip-path:url(#SVGID_2_);fill:#EC761F;}
	.st187{clip-path:url(#SVGID_2_);fill:#E24D1A;}
	.st188{clip-path:url(#SVGID_2_);fill:#DC5915;}
	.st189{clip-path:url(#SVGID_2_);fill:#E9592D;}
	.st190{clip-path:url(#SVGID_2_);fill:#DD592C;}
	.st191{clip-path:url(#SVGID_2_);fill:#C0376E;}
	.st192{clip-path:url(#SVGID_2_);fill:#964392;}
	.st193{clip-path:url(#SVGID_2_);fill:#6F559F;}
	.st194{clip-path:url(#SVGID_2_);fill:#524D9B;}
	.st195{clip-path:url(#SVGID_2_);fill:#CA551C;}
	.st196{clip-path:url(#SVGID_2_);fill:#D9581B;}
	.st197{clip-path:url(#SVGID_2_);fill:#EB5E2B;}
	.st198{clip-path:url(#SVGID_2_);fill:#EE753F;}
	.st199{clip-path:url(#SVGID_2_);fill:#E73B25;}
	.st200{clip-path:url(#SVGID_2_);fill:#E62F29;}
	.st201{clip-path:url(#SVGID_2_);fill:#E32E67;}
	.st202{clip-path:url(#SVGID_2_);fill:#C03188;}
	.st203{clip-path:url(#SVGID_2_);fill:#903F90;}
	.st204{clip-path:url(#SVGID_2_);fill:#7B3E90;}
	.st205{clip-path:url(#SVGID_2_);fill:#6C388D;}
	.st206{clip-path:url(#SVGID_2_);fill:#C44220;}
	.st207{clip-path:url(#SVGID_2_);fill:#DA5E24;}
	.st208{clip-path:url(#SVGID_2_);fill:#E65322;}
	.st209{clip-path:url(#SVGID_2_);fill:#E94836;}
	.st210{clip-path:url(#SVGID_2_);fill:#E2271F;}
	.st211{clip-path:url(#SVGID_2_);fill:#E12132;}
	.st212{clip-path:url(#SVGID_2_);fill:#CC1C72;}
	.st213{clip-path:url(#SVGID_2_);fill:#AD3089;}
	.st214{clip-path:url(#SVGID_2_);fill:#974996;}
	.st215{clip-path:url(#SVGID_2_);fill:#9C4D98;}
	.st216{clip-path:url(#SVGID_2_);fill:#C44624;}
	.st217{clip-path:url(#SVGID_2_);fill:#D94A27;}
	.st218{clip-path:url(#SVGID_2_);fill:#D0221E;}
	.st219{clip-path:url(#SVGID_2_);fill:#D92823;}
	.st220{clip-path:url(#SVGID_2_);fill:#D62726;}
	.st221{clip-path:url(#SVGID_2_);fill:#B92350;}
	.st222{clip-path:url(#SVGID_2_);fill:#AF236B;}
	.st223{clip-path:url(#SVGID_2_);fill:#A54292;}
	.st224{clip-path:url(#SVGID_2_);fill:#853E90;}
	.st225{clip-path:url(#SVGID_2_);fill:#88378C;}
	.st226{clip-path:url(#SVGID_2_);fill:#7F2C87;}
	.st227{clip-path:url(#SVGID_2_);fill:#962D16;}
	.st228{clip-path:url(#SVGID_2_);fill:#AB3F21;}
	.st229{clip-path:url(#SVGID_2_);fill:#CD4030;}
	.st230{clip-path:url(#SVGID_2_);fill:#BF231F;}
	.st231{clip-path:url(#SVGID_2_);fill:#C03722;}
	.st232{clip-path:url(#SVGID_2_);fill:#AB173B;}
	.st233{clip-path:url(#SVGID_2_);fill:#8C1957;}
	.st234{clip-path:url(#SVGID_2_);fill:#892981;}
	.st235{clip-path:url(#SVGID_2_);fill:#91398D;}
	.st236{clip-path:url(#SVGID_2_);fill:#7F368C;}
	.st237{clip-path:url(#SVGID_2_);fill:#71247E;}
</style>
<g id="Capa_2">
	<rect x="-45.9" y="-45.9" class="st0" width="2891.7" height="2891.7"/>
</g>
<g id="Capa_1">
	<g>
		<defs>
			<rect id="SVGID_1_" x="-45.9" y="-45.9" width="2891.7" height="2891.7"/>
		</defs>
		<clipPath id="SVGID_2_">
			<use xlink:href="#SVGID_1_"  style="overflow:visible;"/>
		</clipPath>
		<polygon class="st1" points="-65.3,190 213.8,190 74.3,-78.9 		"/>
		<polygon class="st2" points="213.8,190 492.9,190 353.4,-78.9 		"/>
		<polygon class="st3" points="492.9,190 772,190 632.5,-78.9 		"/>
		<polygon class="st4" points="772,190 1051.1,190 911.6,-78.9 		"/>
		<polygon class="st5" points="1051.1,190 1330.2,190 1190.7,-78.9 		"/>
		<polygon class="st6" points="1330.2,190 1609.3,190 1469.8,-78.9 		"/>
		<polygon class="st7" points="1609.3,190 1888.4,190 1748.9,-78.9 		"/>
		<polygon class="st8" points="1888.4,190 2167.5,190 2028,-78.9 		"/>
		<polygon class="st9" points="2167.5,190 2446.6,190 2307.1,-78.9 		"/>
		<polygon class="st10" points="2446.6,190 2725.7,190 2586.2,-78.9 		"/>
		<polygon class="st11" points="2725.7,190 3004.8,190 2865.3,-78.9 		"/>
		<polygon class="st12" points="-65.3,458.9 213.8,458.9 74.3,190 		"/>
		<polygon class="st13" points="213.8,458.9 492.9,458.9 353.4,190 		"/>
		<polygon class="st14" points="492.9,458.9 772,458.9 632.5,190 		"/>
		<polygon class="st15" points="772,458.9 1051.1,458.9 911.6,190 		"/>
		<polygon class="st16" points="1051.1,458.9 1330.2,458.9 1190.7,190 		"/>
		<polygon class="st17" points="1330.2,458.9 1609.3,458.9 1469.8,190 		"/>
		<polygon class="st18" points="1609.3,458.9 1888.4,458.9 1748.9,190 		"/>
		<polygon class="st19" points="1888.4,458.9 2167.5,458.9 2028,190 		"/>
		<polygon class="st20" points="2167.5,458.9 2446.6,458.9 2307.1,190 		"/>
		<polygon class="st21" points="2446.6,458.9 2725.7,458.9 2586.2,190 		"/>
		<polygon class="st22" points="2725.7,458.9 3004.8,458.9 2865.3,190 		"/>
		<polygon class="st23" points="-65.3,727.8 213.8,727.8 74.3,458.9 		"/>
		<polygon class="st24" points="213.8,727.8 492.9,727.8 353.4,458.9 		"/>
		<polygon class="st25" points="492.9,727.8 772,727.8 632.5,458.9 		"/>
		<polygon class="st26" points="772,727.8 1051.1,727.8 911.6,458.9 		"/>
		<polygon class="st27" points="1051.1,727.8 1330.2,727.8 1190.7,458.9 		"/>
		<polygon class="st28" points="1330.2,727.8 1609.3,727.8 1469.8,458.9 		"/>
		<polygon class="st29" points="1609.3,727.8 1888.4,727.8 1748.9,458.9 		"/>
		<polygon class="st30" points="1888.4,727.8 2167.5,727.8 2028,458.9 		"/>
		<polygon class="st31" points="2167.5,727.8 2446.6,727.8 2307.1,458.9 		"/>
		<polygon class="st32" points="2446.6,727.8 2725.7,727.8 2586.2,458.9 		"/>
		<polygon class="st33" points="2725.7,727.8 3004.8,727.8 2865.3,458.9 		"/>
		<polygon class="st34" points="-65.3,996.7 213.8,996.7 74.3,727.8 		"/>
		<polygon class="st35" points="213.8,996.7 492.9,996.7 353.4,727.8 		"/>
		<polygon class="st36" points="492.9,996.7 772,996.7 632.5,727.8 		"/>
		<polygon class="st37" points="772,996.7 1051.1,996.7 911.6,727.8 		"/>
		<polygon class="st38" points="1051.1,996.7 1330.2,996.7 1190.7,727.8 		"/>
		<polygon class="st39" points="1330.2,996.7 1609.3,996.7 1469.8,727.8 		"/>
		<polygon class="st40" points="1609.3,996.7 1888.4,996.7 1748.9,727.8 		"/>
		<polygon class="st41" points="1888.4,996.7 2167.5,996.7 2028,727.8 		"/>
		<polygon class="st42" points="2167.5,996.7 2446.6,996.7 2307.1,727.8 		"/>
		<polygon class="st43" points="2446.6,996.7 2725.7,996.7 2586.2,727.8 		"/>
		<polygon class="st44" points="2725.7,996.7 3004.8,996.7 2865.3,727.8 		"/>
		<polygon class="st45" points="-65.3,1265.6 213.8,1265.6 74.3,996.7 		"/>
		<polygon class="st46" points="213.8,1265.6 492.9,1265.6 353.4,996.7 		"/>
		<polygon class="st47" points="492.9,1265.6 772,1265.6 632.5,996.7 		"/>
		<polygon class="st48" points="772,1265.6 1051.1,1265.6 911.6,996.7 		"/>
		<polygon class="st49" points="1051.1,1265.6 1330.2,1265.6 1190.7,996.7 		"/>
		<polygon class="st50" points="1330.2,1265.6 1609.3,1265.6 1469.8,996.7 		"/>
		<polygon class="st51" points="1609.3,1265.6 1888.4,1265.6 1748.9,996.7 		"/>
		<polygon class="st52" points="1888.4,1265.6 2167.5,1265.6 2028,996.7 		"/>
		<polygon class="st53" points="2167.5,1265.6 2446.6,1265.6 2307.1,996.7 		"/>
		<polygon class="st54" points="2446.6,1265.6 2725.7,1265.6 2586.2,996.7 		"/>
		<polygon class="st55" points="2725.7,1265.6 3004.8,1265.6 2865.3,996.7 		"/>
		<polygon class="st56" points="-65.3,1534.4 213.8,1534.4 74.3,1265.6 		"/>
		<polygon class="st57" points="213.8,1534.4 492.9,1534.4 353.4,1265.6 		"/>
		<polygon class="st58" points="492.9,1534.4 772,1534.4 632.5,1265.6 		"/>
		<polygon class="st59" points="772,1534.4 1051.1,1534.4 911.6,1265.6 		"/>
		<polygon class="st60" points="1051.1,1534.4 1330.2,1534.4 1190.7,1265.6 		"/>
		<polygon class="st61" points="1330.2,1534.4 1609.3,1534.4 1469.8,1265.6 		"/>
		<polygon class="st62" points="1609.3,1534.4 1888.4,1534.4 1748.9,1265.6 		"/>
		<polygon class="st63" points="1888.4,1534.4 2167.5,1534.4 2028,1265.6 		"/>
		<polygon class="st64" points="2167.5,1534.4 2446.6,1534.4 2307.1,1265.6 		"/>
		<polygon class="st65" points="2446.6,1534.4 2725.7,1534.4 2586.2,1265.6 		"/>
		<polygon class="st66" points="2725.7,1534.4 3004.8,1534.4 2865.3,1265.6 		"/>
		<polygon class="st67" points="-65.3,1803.3 213.8,1803.3 74.3,1534.4 		"/>
		<polygon class="st68" points="213.8,1803.3 492.9,1803.3 353.4,1534.4 		"/>
		<polygon class="st69" points="492.9,1803.3 772,1803.3 632.5,1534.4 		"/>
		<polygon class="st70" points="772,1803.3 1051.1,1803.3 911.6,1534.4 		"/>
		<polygon class="st71" points="1051.1,1803.3 1330.2,1803.3 1190.7,1534.4 		"/>
		<polygon class="st72" points="1330.2,1803.3 1609.3,1803.3 1469.8,1534.4 		"/>
		<polygon class="st73" points="1609.3,1803.3 1888.4,1803.3 1748.9,1534.4 		"/>
		<polygon class="st74" points="1888.4,1803.3 2167.5,1803.3 2028,1534.4 		"/>
		<polygon class="st75" points="2167.5,1803.3 2446.6,1803.3 2307.1,1534.4 		"/>
		<polygon class="st76" points="2446.6,1803.3 2725.7,1803.3 2586.2,1534.4 		"/>
		<polygon class="st66" points="2725.7,1803.3 3004.8,1803.3 2865.3,1534.4 		"/>
		<polygon class="st77" points="-65.3,2072.2 213.8,2072.2 74.3,1803.3 		"/>
		<polygon class="st78" points="213.8,2072.2 492.9,2072.2 353.4,1803.3 		"/>
		<polygon class="st79" points="492.9,2072.2 772,2072.2 632.5,1803.3 		"/>
		<polygon class="st80" points="772,2072.2 1051.1,2072.2 911.6,1803.3 		"/>
		<polygon class="st81" points="1051.1,2072.2 1330.2,2072.2 1190.7,1803.3 		"/>
		<polygon class="st82" points="1330.2,2072.2 1609.3,2072.2 1469.8,1803.3 		"/>
		<polygon class="st82" points="1609.3,2072.2 1888.4,2072.2 1748.9,1803.3 		"/>
		<polygon class="st83" points="1888.4,2072.2 2167.5,2072.2 2028,1803.3 		"/>
		<polygon class="st84" points="2167.5,2072.2 2446.6,2072.2 2307.1,1803.3 		"/>
		<polygon class="st85" points="2446.6,2072.2 2725.7,2072.2 2586.2,1803.3 		"/>
		<polygon class="st86" points="2725.7,2072.2 3004.8,2072.2 2865.3,1803.3 		"/>
		<polygon class="st87" points="-65.3,2341.1 213.8,2341.1 74.3,2072.2 		"/>
		<polygon class="st88" points="213.8,2341.1 492.9,2341.1 353.4,2072.2 		"/>
		<polygon class="st89" points="492.9,2341.1 772,2341.1 632.5,2072.2 		"/>
		<polygon class="st90" points="772,2341.1 1051.1,2341.1 911.6,2072.2 		"/>
		<polygon class="st91" points="1051.1,2341.1 1330.2,2341.1 1190.7,2072.2 		"/>
		<polygon class="st92" points="1330.2,2341.1 1609.3,2341.1 1469.8,2072.2 		"/>
		<polygon class="st93" points="1609.3,2341.1 1888.4,2341.1 1748.9,2072.2 		"/>
		<polygon class="st94" points="1888.4,2341.1 2167.5,2341.1 2028,2072.2 		"/>
		<polygon class="st95" points="2167.5,2341.1 2446.6,2341.1 2307.1,2072.2 		"/>
		<polygon class="st96" points="2446.6,2341.1 2725.7,2341.1 2586.2,2072.2 		"/>
		<polygon class="st97" points="2725.7,2341.1 3004.8,2341.1 2865.3,2072.2 		"/>
		<polygon class="st98" points="-65.3,2610 213.8,2610 74.3,2341.1 		"/>
		<polygon class="st99" points="213.8,2610 492.9,2610 353.4,2341.1 		"/>
		<polygon class="st100" points="492.9,2610 772,2610 632.5,2341.1 		"/>
		<polygon class="st101" points="772,2610 1051.1,2610 911.6,2341.1 		"/>
		<polygon class="st102" points="1051.1,2610 1330.2,2610 1190.7,2341.1 		"/>
		<polygon class="st103" points="1330.2,2610 1609.3,2610 1469.8,2341.1 		"/>
		<polygon class="st104" points="1609.3,2610 1888.4,2610 1748.9,2341.1 		"/>
		<polygon class="st105" points="1888.4,2610 2167.5,2610 2028,2341.1 		"/>
		<polygon class="st106" points="2167.5,2610 2446.6,2610 2307.1,2341.1 		"/>
		<polygon class="st107" points="2446.6,2610 2725.7,2610 2586.2,2341.1 		"/>
		<polygon class="st108" points="2725.7,2610 3004.8,2610 2865.3,2341.1 		"/>
		<polygon class="st109" points="-65.3,2878.9 213.8,2878.9 74.3,2610 		"/>
		<polygon class="st110" points="213.8,2878.9 492.9,2878.9 353.4,2610 		"/>
		<polygon class="st111" points="492.9,2878.9 772,2878.9 632.5,2610 		"/>
		<polygon class="st112" points="772,2878.9 1051.1,2878.9 911.6,2610 		"/>
		<polygon class="st113" points="1051.1,2878.9 1330.2,2878.9 1190.7,2610 		"/>
		<polygon class="st114" points="1330.2,2878.9 1609.3,2878.9 1469.8,2610 		"/>
		<polygon class="st115" points="1609.3,2878.9 1888.4,2878.9 1748.9,2610 		"/>
		<polygon class="st116" points="1888.4,2878.9 2167.5,2878.9 2028,2610 		"/>
		<polygon class="st117" points="2167.5,2878.9 2446.6,2878.9 2307.1,2610 		"/>
		<polygon class="st118" points="2446.6,2878.9 2725.7,2878.9 2586.2,2610 		"/>
		<polygon class="st119" points="2725.7,2878.9 3004.8,2878.9 2865.3,2610 		"/>
		<polygon class="st120" points="2865.3,2610 2586.2,2610 2725.7,2878.9 		"/>
		<polygon class="st121" points="2586.2,2610 2307.1,2610 2446.6,2878.9 		"/>
		<polygon class="st122" points="2307.1,2610 2028,2610 2167.5,2878.9 		"/>
		<polygon class="st123" points="2028,2610 1748.9,2610 1888.4,2878.9 		"/>
		<polygon class="st124" points="1748.9,2610 1469.8,2610 1609.3,2878.9 		"/>
		<polygon class="st125" points="1469.8,2610 1190.7,2610 1330.2,2878.9 		"/>
		<polygon class="st126" points="1190.7,2610 911.6,2610 1051.1,2878.9 		"/>
		<polygon class="st127" points="911.6,2610 632.5,2610 772,2878.9 		"/>
		<polygon class="st128" points="632.5,2610 353.4,2610 492.9,2878.9 		"/>
		<polygon class="st129" points="353.4,2610 74.3,2610 213.8,2878.9 		"/>
		<polygon class="st130" points="74.3,2610 -204.8,2610 -65.3,2878.9 		"/>
		<polygon class="st131" points="2865.3,2341.1 2586.2,2341.1 2725.7,2610 		"/>
		<polygon class="st132" points="2586.2,2341.1 2307.1,2341.1 2446.6,2610 		"/>
		<polygon class="st133" points="2307.1,2341.1 2028,2341.1 2167.5,2610 		"/>
		<polygon class="st134" points="2028,2341.1 1748.9,2341.1 1888.4,2610 		"/>
		<polygon class="st135" points="1748.9,2341.1 1469.8,2341.1 1609.3,2610 		"/>
		<polygon class="st136" points="1469.8,2341.1 1190.7,2341.1 1330.2,2610 		"/>
		<polygon class="st137" points="1190.7,2341.1 911.6,2341.1 1051.1,2610 		"/>
		<polygon class="st138" points="911.6,2341.1 632.5,2341.1 772,2610 		"/>
		<polygon class="st139" points="632.5,2341.1 353.4,2341.1 492.9,2610 		"/>
		<polygon class="st140" points="353.4,2341.1 74.3,2341.1 213.8,2610 		"/>
		<polygon class="st141" points="74.3,2341.1 -204.8,2341.1 -65.3,2610 		"/>
		<polygon class="st142" points="2865.3,2072.2 2586.2,2072.2 2725.7,2341.1 		"/>
		<polygon class="st143" points="2586.2,2072.2 2307.1,2072.2 2446.6,2341.1 		"/>
		<polygon class="st144" points="2307.1,2072.2 2028,2072.2 2167.5,2341.1 		"/>
		<polygon class="st145" points="2028,2072.2 1748.9,2072.2 1888.4,2341.1 		"/>
		<polygon class="st146" points="1748.9,2072.2 1469.8,2072.2 1609.3,2341.1 		"/>
		<polygon class="st147" points="1469.8,2072.2 1190.7,2072.2 1330.2,2341.1 		"/>
		<polygon class="st148" points="1190.7,2072.2 911.6,2072.2 1051.1,2341.1 		"/>
		<polygon class="st149" points="911.6,2072.2 632.5,2072.2 772,2341.1 		"/>
		<polygon class="st150" points="632.5,2072.2 353.4,2072.2 492.9,2341.1 		"/>
		<polygon class="st151" points="353.4,2072.2 74.3,2072.2 213.8,2341.1 		"/>
		<polygon class="st152" points="74.3,2072.2 -204.8,2072.2 -65.3,2341.1 		"/>
		<polygon class="st153" points="2865.3,1803.3 2586.2,1803.3 2725.7,2072.2 		"/>
		<polygon class="st154" points="2586.2,1803.3 2307.1,1803.3 2446.6,2072.2 		"/>
		<polygon class="st155" points="2307.1,1803.3 2028,1803.3 2167.5,2072.2 		"/>
		<polygon class="st156" points="2028,1803.3 1748.9,1803.3 1888.4,2072.2 		"/>
		<polygon class="st156" points="1748.9,1803.3 1469.8,1803.3 1609.3,2072.2 		"/>
		<polygon class="st157" points="1469.8,1803.3 1190.7,1803.3 1330.2,2072.2 		"/>
		<polygon class="st158" points="1190.7,1803.3 911.6,1803.3 1051.1,2072.2 		"/>
		<polygon class="st159" points="911.6,1803.3 632.5,1803.3 772,2072.2 		"/>
		<polygon class="st160" points="632.5,1803.3 353.4,1803.3 492.9,2072.2 		"/>
		<polygon class="st161" points="353.4,1803.3 74.3,1803.3 213.8,2072.2 		"/>
		<polygon class="st162" points="74.3,1803.3 -204.8,1803.3 -65.3,2072.2 		"/>
		<polygon class="st163" points="2865.3,1534.4 2586.2,1534.4 2725.7,1803.3 		"/>
		<polygon class="st164" points="2586.2,1534.4 2307.1,1534.4 2446.6,1803.3 		"/>
		<polygon class="st165" points="2307.1,1534.4 2028,1534.4 2167.5,1803.3 		"/>
		<polygon class="st166" points="2028,1534.4 1748.9,1534.4 1888.4,1803.3 		"/>
		<polygon class="st167" points="1748.9,1534.4 1469.8,1534.4 1609.3,1803.3 		"/>
		<polygon class="st168" points="1469.8,1534.4 1190.7,1534.4 1330.2,1803.3 		"/>
		<polygon class="st169" points="1190.7,1534.4 911.6,1534.4 1051.1,1803.3 		"/>
		<polygon class="st170" points="911.6,1534.4 632.5,1534.4 772,1803.3 		"/>
		<polygon class="st171" points="632.5,1534.4 353.4,1534.4 492.9,1803.3 		"/>
		<polygon class="st172" points="353.4,1534.4 74.3,1534.4 213.8,1803.3 		"/>
		<polygon class="st173" points="74.3,1534.4 -204.8,1534.4 -65.3,1803.3 		"/>
		<polygon class="st174" points="2865.3,1265.6 2586.2,1265.6 2725.7,1534.4 		"/>
		<polygon class="st175" points="2586.2,1265.6 2307.1,1265.6 2446.6,1534.4 		"/>
		<polygon class="st176" points="2307.1,1265.6 2028,1265.6 2167.5,1534.4 		"/>
		<polygon class="st177" points="2028,1265.6 1748.9,1265.6 1888.4,1534.4 		"/>
		<polygon class="st178" points="1748.9,1265.6 1469.8,1265.6 1609.3,1534.4 		"/>
		<polygon class="st179" points="1469.8,1265.6 1190.7,1265.6 1330.2,1534.4 		"/>
		<polygon class="st180" points="1190.7,1265.6 911.6,1265.6 1051.1,1534.4 		"/>
		<polygon class="st181" points="911.6,1265.6 632.5,1265.6 772,1534.4 		"/>
		<polygon class="st182" points="632.5,1265.6 353.4,1265.6 492.9,1534.4 		"/>
		<polygon class="st183" points="353.4,1265.6 74.3,1265.6 213.8,1534.4 		"/>
		<polygon class="st184" points="74.3,1265.6 -204.8,1265.6 -65.3,1534.4 		"/>
		<polygon class="st185" points="2865.3,996.7 2586.2,996.7 2725.7,1265.6 		"/>
		<polygon class="st53" points="2586.2,996.7 2307.1,996.7 2446.6,1265.6 		"/>
		<polygon class="st186" points="2307.1,996.7 2028,996.7 2167.5,1265.6 		"/>
		<polygon class="st187" points="2028,996.7 1748.9,996.7 1888.4,1265.6 		"/>
		<polygon class="st188" points="1748.9,996.7 1469.8,996.7 1609.3,1265.6 		"/>
		<polygon class="st189" points="1469.8,996.7 1190.7,996.7 1330.2,1265.6 		"/>
		<polygon class="st190" points="1190.7,996.7 911.6,996.7 1051.1,1265.6 		"/>
		<polygon class="st191" points="911.6,996.7 632.5,996.7 772,1265.6 		"/>
		<polygon class="st192" points="632.5,996.7 353.4,996.7 492.9,1265.6 		"/>
		<polygon class="st193" points="353.4,996.7 74.3,996.7 213.8,1265.6 		"/>
		<polygon class="st194" points="74.3,996.7 -204.8,996.7 -65.3,1265.6 		"/>
		<polygon class="st195" points="2865.3,727.8 2586.2,727.8 2725.7,996.7 		"/>
		<polygon class="st196" points="2586.2,727.8 2307.1,727.8 2446.6,996.7 		"/>
		<polygon class="st197" points="2307.1,727.8 2028,727.8 2167.5,996.7 		"/>
		<polygon class="st198" points="2028,727.8 1748.9,727.8 1888.4,996.7 		"/>
		<polygon class="st199" points="1748.9,727.8 1469.8,727.8 1609.3,996.7 		"/>
		<polygon class="st200" points="1469.8,727.8 1190.7,727.8 1330.2,996.7 		"/>
		<polygon class="st201" points="1190.7,727.8 911.6,727.8 1051.1,996.7 		"/>
		<polygon class="st202" points="911.6,727.8 632.5,727.8 772,996.7 		"/>
		<polygon class="st203" points="632.5,727.8 353.4,727.8 492.9,996.7 		"/>
		<polygon class="st204" points="353.4,727.8 74.3,727.8 213.8,996.7 		"/>
		<polygon class="st205" points="74.3,727.8 -204.8,727.8 -65.3,996.7 		"/>
		<polygon class="st206" points="2865.3,458.9 2586.2,458.9 2725.7,727.8 		"/>
		<polygon class="st207" points="2586.2,458.9 2307.1,458.9 2446.6,727.8 		"/>
		<polygon class="st208" points="2307.1,458.9 2028,458.9 2167.5,727.8 		"/>
		<polygon class="st209" points="2028,458.9 1748.9,458.9 1888.4,727.8 		"/>
		<polygon class="st210" points="1748.9,458.9 1469.8,458.9 1609.3,727.8 		"/>
		<polygon class="st211" points="1469.8,458.9 1190.7,458.9 1330.2,727.8 		"/>
		<polygon class="st212" points="1190.7,458.9 911.6,458.9 1051.1,727.8 		"/>
		<polygon class="st213" points="911.6,458.9 632.5,458.9 772,727.8 		"/>
		<polygon class="st214" points="632.5,458.9 353.4,458.9 492.9,727.8 		"/>
		<polygon class="st215" points="353.4,458.9 74.3,458.9 213.8,727.8 		"/>
		<polygon class="st205" points="74.3,458.9 -204.8,458.9 -65.3,727.8 		"/>
		<polygon class="st216" points="2865.3,190 2586.2,190 2725.7,458.9 		"/>
		<polygon class="st217" points="2586.2,190 2307.1,190 2446.6,458.9 		"/>
		<polygon class="st218" points="2307.1,190 2028,190 2167.5,458.9 		"/>
		<polygon class="st219" points="2028,190 1748.9,190 1888.4,458.9 		"/>
		<polygon class="st220" points="1748.9,190 1469.8,190 1609.3,458.9 		"/>
		<polygon class="st221" points="1469.8,190 1190.7,190 1330.2,458.9 		"/>
		<polygon class="st222" points="1190.7,190 911.6,190 1051.1,458.9 		"/>
		<polygon class="st223" points="911.6,190 632.5,190 772,458.9 		"/>
		<polygon class="st224" points="632.5,190 353.4,190 492.9,458.9 		"/>
		<polygon class="st225" points="353.4,190 74.3,190 213.8,458.9 		"/>
		<polygon class="st226" points="74.3,190 -204.8,190 -65.3,458.9 		"/>
		<polygon class="st227" points="2865.3,-78.9 2586.2,-78.9 2725.7,190 		"/>
		<polygon class="st228" points="2586.2,-78.9 2307.1,-78.9 2446.6,190 		"/>
		<polygon class="st229" points="2307.1,-78.9 2028,-78.9 2167.5,190 		"/>
		<polygon class="st230" points="2028,-78.9 1748.9,-78.9 1888.4,190 		"/>
		<polygon class="st231" points="1748.9,-78.9 1469.8,-78.9 1609.3,190 		"/>
		<polygon class="st232" points="1469.8,-78.9 1190.7,-78.9 1330.2,190 		"/>
		<polygon class="st233" points="1190.7,-78.9 911.6,-78.9 1051.1,190 		"/>
		<polygon class="st234" points="911.6,-78.9 632.5,-78.9 772,190 		"/>
		<polygon class="st235" points="632.5,-78.9 353.4,-78.9 492.9,190 		"/>
		<polygon class="st236" points="353.4,-78.9 74.3,-78.9 213.8,190 		"/>
		<polygon class="st237" points="74.3,-78.9 -204.8,-78.9 -65.3,190 		"/>
	</g>
</g>
</svg>
